# xmcd CD database file
#
# Track frame offsets:
#	150
#	22562
#	43890
#
# Disc length: 884 seconds
#
# Revision: 1
# Processed by: cddbd v1.5.2PL0 Copyright (c) Steve Scherf et al.
# Submitted via: CDex 1.70beta2
#
DISCID=17037203
DTITLE=Little Kiss - A.S.A.P.
DYEAR=1997
DGENRE=JPop
TTITLE0=A.S.A.P.
TTITLE1=ふさわしい２人
TTITLE2=A.S.A.P. (オリジナル・カラオケ)
EXTD=YEAR: 1997
EXTT0=
EXTT1=
EXTT2=
PLAYORDER=
